<?xml version="1.0" encoding="UTF-8"?>
<!DOCTYPE svg PUBLIC "-//W3C//DTD SVG 1.1//EN" "http://www.w3.org/Graphics/SVG/1.1/DTD/svg11.dtd">
<svg version="1.1" xmlns="http://www.w3.org/2000/svg" xmlns:xlink="http://www.w3.org/1999/xlink" x="0px" y="0px" width="612" height="792" viewBox="0, 0, 612, 792">
  <g id="Layer 1">
    <path d="M50.75,79.297 C90.315,79.729 129.921,79.5 169.5,79.5 C174.022,79.5 196.785,76.063 197.5,82.5 C203.933,140.393 144.954,259.401 120.5,311.5 C113.296,326.848 102.941,341.729 94.5,356.5 C91.788,361.247 79.107,370.399 84.5,369.5 C115.183,364.386 152.152,334.637 176.5,320.5 C273.809,263.998 371.051,207.279 462.5,141.5 C478.315,130.124 496.553,116.798 513.5,105.5 C517.542,102.805 530.579,94.039 531.5,94.5 C533.025,95.263 520.509,109.986 509.5,127.5 C484.377,167.468 470.925,191.599 448.5,234.5 C396.73,333.539 346.192,434.65 280.5,525.5 C266.172,545.315 251.03,564.739 236.5,584.5 C233.167,589.167 229.833,593.833 226.5,598.5 C226.167,599.5 226.059,600.606 225.5,601.5 C223.733,604.327 216.2,609.971 219.5,609.5 C227.115,608.412 243.662,598.137 249.5,595.5 C290.81,576.844 355.613,546.5 401.5,546.5" fill-opacity="0" stroke="#000000" stroke-width="10" stroke-linecap="round"/>
  </g>
  <defs/>
</svg>
